<svg width="223" height="223" viewBox="0 0 223 223" fill="none" xmlns="http://www.w3.org/2000/svg">
<path fill-rule="evenodd" clip-rule="evenodd" d="M112 20C161.706 20 202 60.2944 202 110C202 159.706 161.706 200 112 200C62.2944 200 22 159.706 22 110C22 60.2944 62.2944 20 112 20ZM112 31.9252C68.8805 31.9252 33.9252 66.8805 33.9252 110C33.9252 153.119 68.8805 188.075 112 188.075C120.207 188.075 128.118 186.808 135.549 184.46C139.921 183.078 136.851 176.159 132.265 176.159C95.7263 176.159 66.106 146.539 66.106 110C66.106 73.4614 95.7263 43.8411 132.265 43.8411C136.851 43.8411 139.922 36.9211 135.549 35.5394C128.118 33.1915 120.207 31.9252 112 31.9252ZM132.265 53.5218C119.242 53.5218 107.251 57.931 97.6975 65.3358C96.8226 66.0139 96.8563 67.323 97.3426 68.3174C97.9314 69.5213 99.3208 70.7311 100.614 70.3811C104.244 69.3991 108.06 68.8742 112 68.8742C136.03 68.8742 155.51 88.3542 155.51 112.384C155.51 136.414 136.03 155.894 112 155.894C108.811 155.894 106.757 160.502 109.679 161.779C116.595 164.801 124.234 166.478 132.265 166.478C163.457 166.478 188.743 141.192 188.743 110C188.743 78.8078 163.457 53.5218 132.265 53.5218ZM112 84.0519C96.3526 84.0519 83.6678 96.7367 83.6678 112.384C83.6678 128.031 96.3526 140.716 112 140.716C127.647 140.716 140.332 128.031 140.332 112.384C140.332 96.7367 127.647 84.0519 112 84.0519ZM86.697 76.9542C86.7207 76.8483 86.583 76.7849 86.5192 76.8726C86.4525 76.9643 86.5657 77.0798 86.6578 77.0137C86.6776 76.9994 86.6917 76.9781 86.697 76.9542Z" fill="#15113C"/>
<path fill-rule="evenodd" clip-rule="evenodd" d="M112 20C161.706 20 202 60.2944 202 110C202 159.706 161.706 200 112 200C62.2944 200 22 159.706 22 110C22 60.2944 62.2944 20 112 20ZM112 31.9252C68.8805 31.9252 33.9252 66.8805 33.9252 110C33.9252 153.119 68.8805 188.075 112 188.075C120.207 188.075 128.118 186.808 135.549 184.46C139.921 183.078 136.851 176.159 132.265 176.159C95.7263 176.159 66.106 146.539 66.106 110C66.106 73.4614 95.7263 43.8411 132.265 43.8411C136.851 43.8411 139.922 36.9211 135.549 35.5394C128.118 33.1915 120.207 31.9252 112 31.9252ZM132.265 53.5218C119.242 53.5218 107.251 57.931 97.6975 65.3358C96.8226 66.0139 96.8563 67.323 97.3426 68.3174C97.9314 69.5213 99.3208 70.7311 100.614 70.3811C104.244 69.3991 108.06 68.8742 112 68.8742C136.03 68.8742 155.51 88.3542 155.51 112.384C155.51 136.414 136.03 155.894 112 155.894C108.811 155.894 106.757 160.502 109.679 161.779C116.595 164.801 124.234 166.478 132.265 166.478C163.457 166.478 188.743 141.192 188.743 110C188.743 78.8078 163.457 53.5218 132.265 53.5218ZM112 84.0519C96.3526 84.0519 83.6678 96.7367 83.6678 112.384C83.6678 128.031 96.3526 140.716 112 140.716C127.647 140.716 140.332 128.031 140.332 112.384C140.332 96.7367 127.647 84.0519 112 84.0519ZM86.697 76.9542C86.7207 76.8483 86.583 76.7849 86.5192 76.8726C86.4525 76.9643 86.5657 77.0798 86.6578 77.0137C86.6776 76.9994 86.6917 76.9781 86.697 76.9542Z" fill="url(#paint0_radial_1_125)"/>
<defs>
<radialGradient id="paint0_radial_1_125" cx="0" cy="0" r="1" gradientUnits="userSpaceOnUse" gradientTransform="translate(45.8411 59.9338) rotate(38.72) scale(177.231 147.204)">
<stop stop-color="#46DAAE"/>
<stop offset="0.495192" stop-color="#92DCF2"/>
<stop offset="1" stop-color="#C682DB"/>
</radialGradient>
</defs>
</svg>
